<svg id="calendar" xmlns="http://www.w3.org/2000/svg" width="24.653" height="24.653" viewBox="0 0 24.653 24.653">
  <g id="Group_17" data-name="Group 17">
    <g id="Group_16" data-name="Group 16">
      <path id="Path_922" data-name="Path 922" d="M21.764,1.926H20.608V0H18.682V1.926H5.971V0H4.045V1.926H2.889A2.892,2.892,0,0,0,0,4.815V21.764a2.892,2.892,0,0,0,2.889,2.889H21.764a2.892,2.892,0,0,0,2.889-2.889V4.815A2.892,2.892,0,0,0,21.764,1.926Zm.963,19.838a.964.964,0,0,1-.963.963H2.889a.964.964,0,0,1-.963-.963V9.052h20.8Zm0-14.637H1.926V4.815a.964.964,0,0,1,.963-.963H4.045V5.778H5.971V3.852H18.682V5.778h1.926V3.852h1.156a.964.964,0,0,1,.963.963Z" />
    </g>
  </g>
  <g id="Group_19" data-name="Group 19" transform="translate(3.112 10.876)">
    <g id="Group_18" data-name="Group 18" transform="translate(0 0)">
      <rect id="Rectangle_16" data-name="Rectangle 16" width="3" height="2" transform="translate(0.197)"/>
    </g>
  </g>
  <g id="Group_21" data-name="Group 21" transform="translate(8.112 10.876)">
    <g id="Group_20" data-name="Group 20" transform="translate(0 0)">
      <rect id="Rectangle_17" data-name="Rectangle 17" width="2" height="2" transform="translate(0.197)"/>
    </g>
  </g>
  <g id="Group_23" data-name="Group 23" transform="translate(11.112 10.876)">
    <g id="Group_22" data-name="Group 22" transform="translate(0 0)">
      <rect id="Rectangle_18" data-name="Rectangle 18" width="3" height="2" transform="translate(0.197)"/>
    </g>
  </g>
  <g id="Group_25" data-name="Group 25" transform="translate(16.112 10.876)">
    <g id="Group_24" data-name="Group 24" transform="translate(0 0)">
      <rect id="Rectangle_19" data-name="Rectangle 19" width="2" height="2" transform="translate(0.197)"/>
    </g>
  </g>
  <g id="Group_27" data-name="Group 27" transform="translate(19.112 10.876)">
    <g id="Group_26" data-name="Group 26" transform="translate(0 0)">
      <rect id="Rectangle_20" data-name="Rectangle 20" width="3" height="2" transform="translate(0.197)" />
    </g>
  </g>
  <g id="Group_29" data-name="Group 29" transform="translate(3.112 14.876)">
    <g id="Group_28" data-name="Group 28" transform="translate(0 0)">
      <rect id="Rectangle_21" data-name="Rectangle 21" width="3" height="3" transform="translate(0.197)" />
    </g>
  </g>
  <g id="Group_31" data-name="Group 31" transform="translate(8.112 14.876)">
    <g id="Group_30" data-name="Group 30" transform="translate(0 0)">
      <rect id="Rectangle_22" data-name="Rectangle 22" width="2" height="3" transform="translate(0.197)"/>
    </g>
  </g>
  <g id="Group_33" data-name="Group 33" transform="translate(11.112 14.876)">
    <g id="Group_32" data-name="Group 32" transform="translate(0 0)">
      <rect id="Rectangle_23" data-name="Rectangle 23" width="3" height="3" transform="translate(0.197)"/>
    </g>
  </g>
  <g id="Group_35" data-name="Group 35" transform="translate(16.112 14.876)">
    <g id="Group_34" data-name="Group 34" transform="translate(0 0)">
      <rect id="Rectangle_24" data-name="Rectangle 24" width="2" height="3" transform="translate(0.197)"/>
    </g>
  </g>
  <g id="Group_37" data-name="Group 37" transform="translate(3.112 18.876)">
    <g id="Group_36" data-name="Group 36" transform="translate(0 0)">
      <rect id="Rectangle_25" data-name="Rectangle 25" width="3" height="2" transform="translate(0.197)"/>
    </g>
  </g>
  <g id="Group_39" data-name="Group 39" transform="translate(8.112 18.876)">
    <g id="Group_38" data-name="Group 38" transform="translate(0 0)">
      <rect id="Rectangle_26" data-name="Rectangle 26" width="2" height="2" transform="translate(0.197)"/>
    </g>
  </g>
  <g id="Group_41" data-name="Group 41" transform="translate(11.112 18.876)">
    <g id="Group_40" data-name="Group 40" transform="translate(0 0)">
      <rect id="Rectangle_27" data-name="Rectangle 27" width="3" height="2" transform="translate(0.197)"/>
    </g>
  </g>
  <g id="Group_43" data-name="Group 43" transform="translate(16.112 18.876)">
    <g id="Group_42" data-name="Group 42" transform="translate(0 0)">
      <rect id="Rectangle_28" data-name="Rectangle 28" width="2" height="2" transform="translate(0.197)"/>
    </g>
  </g>
  <g id="Group_45" data-name="Group 45" transform="translate(19.112 14.876)">
    <g id="Group_44" data-name="Group 44" transform="translate(0 0)">
      <rect id="Rectangle_29" data-name="Rectangle 29" width="3" height="3" transform="translate(0.197)" />
    </g>
  </g>
</svg>
