<svg xmlns="http://www.w3.org/2000/svg" width="28.519" height="23.664" viewBox="0 0 28.519 23.664">
  <g id="fruit" transform="translate(0 0)">
    <g id="Group_8" data-name="Group 8">
      <g id="Group_7" data-name="Group 7">
        <path id="Path_916" data-name="Path 916" d="M26.4,71.6l-.493.814a3.862,3.862,0,0,1,1.737,3.061,4.052,4.052,0,0,1-2,3.256A6.5,6.5,0,0,0,24.2,75.057a2.217,2.217,0,0,0-.075-4.135V70.7a.78.78,0,0,1,.728-.822v-.986a1.716,1.716,0,0,0-1.6,1.808v.222a2.079,2.079,0,0,0-1.448,1.9,5.215,5.215,0,0,0-.839-.411,2.069,2.069,0,0,0-2.318.266,5.659,5.659,0,0,0,.278-1.761v-.493H15l-.114.3a2.425,2.425,0,0,1-2.216,1.643,2.425,2.425,0,0,1-2.216-1.643l-.114-.3H8.158v.493a5.526,5.526,0,0,0,.816,2.917A2.094,2.094,0,0,0,8,73.592a2.273,2.273,0,0,0-1.941,1.18l-.783-.884L4.67,73.2a4.642,4.642,0,0,0,.794.066,5.1,5.1,0,0,0,1.019-.1l.288-.064.057-.325c.018-.106.437-2.6-.737-3.93h0C4.916,67.525,2.7,68,2.611,68.018l-.288.064-.057.325A6.707,6.707,0,0,0,2.45,71.36,5.023,5.023,0,0,0,0,75.479,17.106,17.106,0,0,0,4.176,86.867a13.4,13.4,0,0,0,10.083,4.717,13.4,13.4,0,0,0,10.083-4.717,17.106,17.106,0,0,0,4.176-11.388A4.818,4.818,0,0,0,26.4,71.6Zm-2.1,5.338A3.684,3.684,0,0,1,24.755,79l-1.821-2.057Zm-.61-5.091a1.159,1.159,0,0,1,0,2.3.909.909,0,0,1-.3-.052c-.194-.2-.394-.387-.6-.561A1.262,1.262,0,0,1,22.669,73,1.092,1.092,0,0,1,23.688,71.85Zm-1.371,2.62a1.923,1.923,0,0,0,.593.477q.076.082.152.167a8.744,8.744,0,0,1,.659.842h-1.4Zm0,3.169,1.756,1.983-.218.1a3.177,3.177,0,0,1-1.538-.543V77.639Zm-1.628-4.293a4.463,4.463,0,0,1,.755.376v1.536L19.624,73.2A1.965,1.965,0,0,1,20.689,73.346Zm-1.682.554,1.82,2.055H19.465A3.71,3.71,0,0,1,19.007,73.9Zm2.437,3.041v1.584a8.278,8.278,0,0,1-.745-.742,8.7,8.7,0,0,1-.659-.841Zm-3.139-1.527a8.379,8.379,0,0,0,1.776,3.066,7.786,7.786,0,0,0,2.254,1.8,22.3,22.3,0,0,1-3.13.729,2.876,2.876,0,0,1-.257-.158l-.237-.164-.232.173a.4.4,0,0,1-.532.027.542.542,0,0,1,.023-.6l.154-.262-.145-.268a5.334,5.334,0,0,1,.21-4.819C18.22,75.095,18.258,75.253,18.305,75.415Zm-1.148-4.006h.868a4.04,4.04,0,0,1-2.455,3.4A5.317,5.317,0,0,0,17.157,71.409Zm-.048,8.616a1.633,1.633,0,0,0,.017,1.246q-.6.053-1.208.083a5.765,5.765,0,0,0,.563-3.707l-.057-.325-.288-.064c-.094-.021-2.306-.493-3.479.833a4.621,4.621,0,0,0-.812,3.217q-.469-.034-.927-.082.062-.065.122-.133l.309-.349-1.611-1.82-.617.7.976,1.1a3.6,3.6,0,0,1-.451.341q-.7-.1-1.357-.239V78.831a2.137,2.137,0,0,0,.878-.332,2.1,2.1,0,0,0,1.165.353h.088a2.5,2.5,0,0,0,2.24-2.628c0-.071,0-.142-.008-.212h1.763a4.181,4.181,0,0,0,2.818-1.12A6.42,6.42,0,0,0,17.11,80.025Zm-3.444,1.112h1.166a2.046,2.046,0,0,1-.569.258h0q-.409,0-.814-.01Zm-.959-.312c0-.137.006-.282.018-.43a2.719,2.719,0,0,1,.551-1.606,1.554,1.554,0,0,1,.283-.249v1.323Zm1.832-.674L15.7,78.842a4.6,4.6,0,0,1-.182,1.309Zm-.106-1.274V78.2a3.772,3.772,0,0,1,.648-.056Zm-4.32-3.767a4.238,4.238,0,0,0,1.647.8,1.859,1.859,0,0,1,.027.315,1.562,1.562,0,0,1-1.4,1.642h-.058a1.306,1.306,0,0,1-.456-.082,2.846,2.846,0,0,0,.456-1.561A2.9,2.9,0,0,0,10.112,75.11Zm-.332-3.7a3.254,3.254,0,0,0,2.889,1.939,3.254,3.254,0,0,0,2.889-1.939h.723a3.832,3.832,0,0,1-3.612,3.615,3.832,3.832,0,0,1-3.612-3.615ZM8,74.578a1.656,1.656,0,0,1,0,3.287,1.656,1.656,0,0,1,0-3.287Zm-.588,4.188v1.863q-.717-.177-1.377-.392l1.319-1.49Zm-1.138-.782a2.5,2.5,0,0,0,.268.285L5.1,79.9l-.194-.078-.067-.028a4.436,4.436,0,0,1-.6-1.81H6.277ZM4.988,74.955l.721.815a2.965,2.965,0,0,0-.035.452,2.932,2.932,0,0,0,.1.776H4.239A4.4,4.4,0,0,1,4.988,74.955ZM3.357,77.924A4.528,4.528,0,0,1,2.978,76.1a4.422,4.422,0,0,1,.775-2.536l.614.694a5.472,5.472,0,0,0-1.016,2.863A5.757,5.757,0,0,0,3.357,77.924ZM5.189,69.3a1.515,1.515,0,0,1,.284.247,3.194,3.194,0,0,1,.569,2.037l-.853-.963Zm.236,2.983A2.826,2.826,0,0,1,3.918,71.9H5.083ZM4.316,68.964v.672L3.668,68.9A3.837,3.837,0,0,1,4.316,68.964ZM4.21,70.91H3.229A4.483,4.483,0,0,1,3.051,69.6ZM2.9,72.207q.051.067.107.13a2.384,2.384,0,0,0,.31.291A5.43,5.43,0,0,0,2.105,76.1a5.582,5.582,0,0,0,.582,2.5A3.94,3.94,0,0,1,.873,75.479,4.013,4.013,0,0,1,2.9,72.207ZM23.725,86.169A12.577,12.577,0,0,1,14.259,90.6a12.577,12.577,0,0,1-9.466-4.428,15.7,15.7,0,0,1-3.669-7.752,9,9,0,0,0,3.482,2.332,26.2,26.2,0,0,0,9.653,1.632,26.2,26.2,0,0,0,9.653-1.632,8.993,8.993,0,0,0,3.482-2.332A15.7,15.7,0,0,1,23.725,86.169Z" transform="translate(0 -67.92)"/>
      </g>
    </g>
    <g id="Group_10" data-name="Group 10" transform="translate(1.667 0.968)">
      <g id="Group_9" data-name="Group 9">
        <path id="Path_917" data-name="Path 917" d="M131.507,79.5l.3,1.419a56.37,56.37,0,0,1,24.823.588l.4-1.4C149.765,78.039,139.508,77.793,131.507,79.5Z" transform="translate(-131.507 -78.37)" />
      </g>
    </g>
  </g>
</svg>
