<svg id="Group_68" data-name="Group 68" xmlns="http://www.w3.org/2000/svg" width="17.876" height="17.876" viewBox="0 0 17.876 17.876">
  <g id="calendar" transform="translate(0 0)">
    <g id="Group_17" data-name="Group 17">
      <g id="Group_16" data-name="Group 16">
        <path id="Path_922" data-name="Path 922" d="M15.781,1.4h-.838V0h-1.4V1.4H4.329V0h-1.4V1.4H2.095A2.1,2.1,0,0,0,0,3.491v12.29a2.1,2.1,0,0,0,2.095,2.095H15.781a2.1,2.1,0,0,0,2.095-2.095V3.491A2.1,2.1,0,0,0,15.781,1.4Zm.7,14.384a.7.7,0,0,1-.7.7H2.095a.7.7,0,0,1-.7-.7V6.564H16.479Zm0-10.614H1.4V3.491a.7.7,0,0,1,.7-.7h.838v1.4h1.4v-1.4h9.217v1.4h1.4v-1.4h.838a.7.7,0,0,1,.7.7Z" fill="#1ab3eb"/>
      </g>
    </g>
    <g id="Group_19" data-name="Group 19" transform="translate(2.154 7.876)">
      <g id="Group_18" data-name="Group 18" transform="translate(0 0)">
        <rect id="Rectangle_16" data-name="Rectangle 16" width="2" height="1" transform="translate(0.183 0)" fill="#1ab3eb"/>
      </g>
    </g>
    <g id="Group_21" data-name="Group 21" transform="translate(6.154 7.876)">
      <g id="Group_20" data-name="Group 20" transform="translate(0 0)">
        <rect id="Rectangle_17" data-name="Rectangle 17" width="1" height="1" transform="translate(0.183 0)" fill="#1ab3eb"/>
      </g>
    </g>
    <g id="Group_23" data-name="Group 23" transform="translate(8.154 7.876)">
      <g id="Group_22" data-name="Group 22" transform="translate(0 0)">
        <rect id="Rectangle_18" data-name="Rectangle 18" width="2" height="1" transform="translate(0.183 0)" fill="#1ab3eb"/>
      </g>
    </g>
    <g id="Group_25" data-name="Group 25" transform="translate(12.154 7.876)">
      <g id="Group_24" data-name="Group 24" transform="translate(0 0)">
        <rect id="Rectangle_19" data-name="Rectangle 19" width="1" height="1" transform="translate(0.183 0)" fill="#1ab3eb"/>
      </g>
    </g>
    <g id="Group_27" data-name="Group 27" transform="translate(14.154 7.876)">
      <g id="Group_26" data-name="Group 26" transform="translate(0 0)">
        <rect id="Rectangle_20" data-name="Rectangle 20" width="2" height="1" transform="translate(0.183 0)" fill="#1ab3eb"/>
      </g>
    </g>
    <g id="Group_29" data-name="Group 29" transform="translate(2.154 10.876)">
      <g id="Group_28" data-name="Group 28" transform="translate(0 0)">
        <rect id="Rectangle_21" data-name="Rectangle 21" width="2" height="2" transform="translate(0.183 0)" fill="#1ab3eb"/>
      </g>
    </g>
    <g id="Group_31" data-name="Group 31" transform="translate(6.154 10.876)">
      <g id="Group_30" data-name="Group 30" transform="translate(0 0)">
        <rect id="Rectangle_22" data-name="Rectangle 22" width="1" height="2" transform="translate(0.183 0)" fill="#1ab3eb"/>
      </g>
    </g>
    <g id="Group_33" data-name="Group 33" transform="translate(8.154 10.876)">
      <g id="Group_32" data-name="Group 32" transform="translate(0 0)">
        <rect id="Rectangle_23" data-name="Rectangle 23" width="2" height="2" transform="translate(0.183 0)" fill="#1ab3eb"/>
      </g>
    </g>
    <g id="Group_35" data-name="Group 35" transform="translate(12.154 10.876)">
      <g id="Group_34" data-name="Group 34" transform="translate(0 0)">
        <rect id="Rectangle_24" data-name="Rectangle 24" width="1" height="2" transform="translate(0.183 0)" fill="#1ab3eb"/>
      </g>
    </g>
    <g id="Group_37" data-name="Group 37" transform="translate(2.154 13.876)">
      <g id="Group_36" data-name="Group 36" transform="translate(0 0)">
        <rect id="Rectangle_25" data-name="Rectangle 25" width="2" height="1" transform="translate(0.183 0)" fill="#1ab3eb"/>
      </g>
    </g>
    <g id="Group_39" data-name="Group 39" transform="translate(6.154 13.876)">
      <g id="Group_38" data-name="Group 38" transform="translate(0 0)">
        <rect id="Rectangle_26" data-name="Rectangle 26" width="1" height="1" transform="translate(0.183 0)" fill="#1ab3eb"/>
      </g>
    </g>
    <g id="Group_41" data-name="Group 41" transform="translate(8.154 13.876)">
      <g id="Group_40" data-name="Group 40" transform="translate(0 0)">
        <rect id="Rectangle_27" data-name="Rectangle 27" width="2" height="1" transform="translate(0.183 0)" fill="#1ab3eb"/>
      </g>
    </g>
    <g id="Group_43" data-name="Group 43" transform="translate(12.154 13.876)">
      <g id="Group_42" data-name="Group 42" transform="translate(0 0)">
        <rect id="Rectangle_28" data-name="Rectangle 28" width="1" height="1" transform="translate(0.183 0)" fill="#1ab3eb"/>
      </g>
    </g>
    <g id="Group_45" data-name="Group 45" transform="translate(14.154 10.876)">
      <g id="Group_44" data-name="Group 44" transform="translate(0 0)">
        <rect id="Rectangle_29" data-name="Rectangle 29" width="2" height="2" transform="translate(0.183 0)" fill="#1ab3eb"/>
      </g>
    </g>
  </g>
</svg>
