<svg id="maps-and-flags" xmlns="http://www.w3.org/2000/svg" width="18.667" height="25.771" viewBox="0 0 18.667 25.771">
  <g id="Group_12" data-name="Group 12" transform="translate(0)">
    <g id="Group_11" data-name="Group 11">
      <path id="Path_918" data-name="Path 918" d="M79.906,0a9.344,9.344,0,0,0-9.333,9.333c0,6.387,8.352,15.763,8.708,16.159a.841.841,0,0,0,1.251,0c.356-.4,8.708-9.772,8.708-16.159A9.344,9.344,0,0,0,79.906,0Zm0,23.644C77.1,20.3,72.254,13.717,72.254,9.333a7.653,7.653,0,1,1,15.305,0C87.559,13.717,82.718,20.3,79.906,23.644Z" transform="translate(-70.573 0)" />
    </g>
  </g>
  <g id="Group_14" data-name="Group 14" transform="translate(4.638 4.638)">
    <g id="Group_13" data-name="Group 13">
      <path id="Path_919" data-name="Path 919" d="M167.4,92.134a4.7,4.7,0,1,0,4.7,4.7A4.7,4.7,0,0,0,167.4,92.134Zm0,7.711a3.015,3.015,0,1,1,3.015-3.015A3.018,3.018,0,0,1,167.4,99.845Z" transform="translate(-162.708 -92.134)"/>
    </g>
  </g>
</svg>
