<svg id="tree-gross-outline" xmlns="http://www.w3.org/2000/svg" width="25.844" height="30.09" viewBox="0 0 25.844 30.09">
  <g id="Group_46" data-name="Group 46" transform="translate(0)">
    <path id="Path_923" data-name="Path 923" d="M158.036,81.686a1.045,1.045,0,0,0-1.079,1.058v12.3c-.279-.451-.572-.893-.86-1.328-1.232-1.861-2.395-3.619-2.467-5.761a1.062,1.062,0,0,0-1.1-1.042,1.085,1.085,0,0,0-.78.317,1.007,1.007,0,0,0-.276.754c.089,2.639,1.455,4.738,2.776,6.767.421.647.857,1.316,1.24,1.989a12.3,12.3,0,0,1,1.467,4.812v4.472a1.077,1.077,0,0,0,.035.271v.013c0,.039,0,.078-.008.117a.984.984,0,0,0,.252.763,1.06,1.06,0,0,0,.778.322,1.1,1.1,0,0,0,1.125-1.023,28.076,28.076,0,0,0-.024-5.057V96.952c.727-1.136,2.7-1.7,3.73-2.159a5.618,5.618,0,0,0,3.312-3.233c.4-1.174-1.453-1.674-1.849-.51-.677,1.99-3.5,2.367-5.11,3.3-.028.016-.055.035-.083.052V82.744A1.045,1.045,0,0,0,158.036,81.686Z" transform="translate(-145.685 -77.42)" />
    <path id="Path_924" data-name="Path 924" d="M40.915,9.132a7.45,7.45,0,0,0,1.162,6.245A6.36,6.36,0,0,0,46.8,18.313l.086,0a1.088,1.088,0,0,0,1.1-1.1,1.21,1.21,0,0,0-1.132-1.278,3.586,3.586,0,0,1-2.547-1.493A5.872,5.872,0,0,1,43.13,10.06a3.691,3.691,0,0,1,3.4-3,2.744,2.744,0,0,1,1.86.733,1.216,1.216,0,0,0,.2.143,1.08,1.08,0,0,0,.716.269,1.277,1.277,0,0,0,1.077-.62,1.14,1.14,0,0,0,.007-1.153c-.665-1.213.162-2.562,1.322-3.267a6.858,6.858,0,0,1,3.546-.78c.333,0,.676.012,1.049.037a4.689,4.689,0,0,1,3.586,2.047,5.482,5.482,0,0,1,.771,4.6,1.291,1.291,0,0,0,.03,1.18,1.157,1.157,0,0,0,.982.6A2.113,2.113,0,0,1,63.4,11.97a5.325,5.325,0,0,1,.392,4.4C62.9,18.4,60.215,18.848,58.268,19a1.218,1.218,0,0,0-.167.026,1.146,1.146,0,0,0-1.169,1.156,1.127,1.127,0,0,1-1.118,1.162,1.184,1.184,0,0,0-1.147,1.237A1.11,1.11,0,0,0,55.8,23.724h.048a3.531,3.531,0,0,0,3.28-2.426c4.057-.495,6.472-2.175,7.179-5,.687-2.743-.517-6.408-3.143-7.5a7.3,7.3,0,0,0-1.37-5.681A7.917,7.917,0,0,0,55.96.025C55.711.009,55.458,0,55.209,0a9.078,9.078,0,0,0-5.74,1.861,4.649,4.649,0,0,0-1.633,3.016,4.979,4.979,0,0,0-1.285-.168A6.112,6.112,0,0,0,40.915,9.132Z" transform="translate(-40.65)" />
  </g>
</svg>
