<svg id="weight" xmlns="http://www.w3.org/2000/svg" width="27.39" height="15.709" viewBox="0 0 27.39 15.709">
  <rect id="Rectangle_15" data-name="Rectangle 15" width="12.084" height="3.222" transform="translate(7.653 6.042)" />
  <g id="Group_15" data-name="Group 15" transform="translate(0 0)">
    <path id="Path_920" data-name="Path 920" d="M8.056,109.176H4.028a.805.805,0,0,0-.806.806v1.611H.806A.805.805,0,0,0,0,112.4v9.264a.805.805,0,0,0,.806.806H3.222v1.611a.805.805,0,0,0,.806.806H8.056a.805.805,0,0,0,.806-.806v-14.1A.805.805,0,0,0,8.056,109.176ZM1.611,120.857V113.2H3.222v7.653H1.611Zm5.639,2.417H4.834V110.787H7.25v12.487Z" transform="translate(0 -109.176)" />
    <path id="Path_921" data-name="Path 921" d="M354.409,111.593h-2.417v-1.611a.805.805,0,0,0-.806-.806h-4.028a.805.805,0,0,0-.806.806v14.1a.805.805,0,0,0,.806.806h4.028a.805.805,0,0,0,.806-.806v-1.611h2.417a.805.805,0,0,0,.806-.806V112.4A.805.805,0,0,0,354.409,111.593Zm-4.028,11.681h-2.417V110.787h2.417Zm3.222-2.417h-1.611V113.2H353.6Z" transform="translate(-327.824 -109.176)"/>
  </g>
</svg>
