<svg xmlns="http://www.w3.org/2000/svg" width="32.943" height="21.637" viewBox="0 0 32.943 21.637">
  <g id="console" transform="translate(0 -55.109)">
    <g id="Group_97" data-name="Group 97" transform="translate(0 55.109)">
      <g id="Group_96" data-name="Group 96" transform="translate(0 0)">
        <path id="Path_954" data-name="Path 954" d="M32.926,70.073a30.751,30.751,0,0,0-.9-5.95,22.835,22.835,0,0,0-1.846-5.006c-2.872-5.047-5.991-4.267-9.725-3.283a26.728,26.728,0,0,1-3.775.739h-.41a26.728,26.728,0,0,1-3.775-.739c-3.734-.944-6.852-1.764-9.725,3.324A20.918,20.918,0,0,0,.921,64.164a30.751,30.751,0,0,0-.9,5.95,11.18,11.18,0,0,0,.574,4.678,3.11,3.11,0,0,0,1.97,1.846,4.012,4.012,0,0,0,2.626-.287,19.286,19.286,0,0,0,5.252-3.734c1.272-1.231,3.652-1.846,6.032-1.846s4.76.615,6.032,1.846a19.286,19.286,0,0,0,5.252,3.734,4.292,4.292,0,0,0,2.626.287,3.066,3.066,0,0,0,1.97-1.887A10.971,10.971,0,0,0,32.926,70.073Zm-1.97,4.1a1.627,1.627,0,0,1-.985,1.026A2.833,2.833,0,0,1,28.289,75a16.734,16.734,0,0,1-4.76-3.406c-1.559-1.559-4.308-2.339-7.058-2.339s-5.5.78-7.1,2.257a17.049,17.049,0,0,1-4.76,3.406,2.545,2.545,0,0,1-1.682.205,1.627,1.627,0,0,1-.985-1.026,9.7,9.7,0,0,1-.41-3.939A28.3,28.3,0,0,1,2.4,64.493a19.579,19.579,0,0,1,1.723-4.637c2.257-4.062,4.883-3.406,8-2.585a24.07,24.07,0,0,0,4.021.78h.615a23.772,23.772,0,0,0,4.062-.78c3.118-.78,5.745-1.477,8,2.585a18.92,18.92,0,0,1,1.723,4.637,31.057,31.057,0,0,1,.862,5.662A9.495,9.495,0,0,1,30.956,74.176Z" transform="translate(0 -55.109)" />
      </g>
    </g>
    <g id="Group_99" data-name="Group 99" transform="translate(4.244 59.2)">
      <g id="Group_98" data-name="Group 98" transform="translate(0 0)">
        <path id="Path_955" data-name="Path 955" d="M49.826,97.853a2.493,2.493,0,0,0-1.477-.7,2.335,2.335,0,0,0-.657-1.436l-.041-.041a2.324,2.324,0,0,0-1.682-.7,2.423,2.423,0,0,0-1.682.7,2.385,2.385,0,0,0-.7,1.477,2.444,2.444,0,0,0-1.477.657l-.041.041a2.324,2.324,0,0,0-.7,1.682,2.423,2.423,0,0,0,.7,1.682,2.288,2.288,0,0,0,1.518.7,2.189,2.189,0,0,0,.7,1.477,2.324,2.324,0,0,0,1.682.7,2.423,2.423,0,0,0,1.682-.7,2.493,2.493,0,0,0,.7-1.477,2.189,2.189,0,0,0,1.477-.7,2.324,2.324,0,0,0,.7-1.682A2.423,2.423,0,0,0,49.826,97.853Zm-1.026,2.3a.835.835,0,0,1-.615.246H47.61a.779.779,0,0,0-.78.78v.533a.862.862,0,1,1-1.723,0v-.574a.779.779,0,0,0-.78-.78h-.574a.841.841,0,0,1-.615-1.436l.041-.041a.98.98,0,0,1,.574-.205h.574a.779.779,0,0,0,.78-.78V97.32a.871.871,0,0,1,1.477-.615l.041.041a.98.98,0,0,1,.205.574v.574a.779.779,0,0,0,.78.78h.574a.871.871,0,0,1,.615,1.477Z" transform="translate(-41.373 -94.981)"/>
      </g>
    </g>
    <g id="Group_101" data-name="Group 101" transform="translate(22.175 59.405)">
      <g id="Group_100" data-name="Group 100" transform="translate(0 0)">
        <circle id="Ellipse_11" data-name="Ellipse 11" cx="1.436" cy="1.436" r="1.436" />
      </g>
    </g>
    <g id="Group_103" data-name="Group 103" transform="translate(22.175 65.231)">
      <g id="Group_102" data-name="Group 102" transform="translate(0 0)">
        <circle id="Ellipse_12" data-name="Ellipse 12" cx="1.436" cy="1.436" r="1.436" />
      </g>
    </g>
    <g id="Group_105" data-name="Group 105" transform="translate(19.262 62.318)">
      <g id="Group_104" data-name="Group 104" transform="translate(0 0)">
        <circle id="Ellipse_13" data-name="Ellipse 13" cx="1.436" cy="1.436" r="1.436" />
      </g>
    </g>
    <g id="Group_107" data-name="Group 107" transform="translate(25.089 62.318)">
      <g id="Group_106" data-name="Group 106" transform="translate(0 0)">
        <circle id="Ellipse_14" data-name="Ellipse 14" cx="1.436" cy="1.436" r="1.436" />
      </g>
    </g>
  </g>
</svg>
